{
    "asset": {
        "version": "2.0",
        "generator": "Open Asset Import Library (assimp v5.0.5eb040c7)"
    },
    "accessors": [
        {
            "bufferView": 0,
            "byteOffset": 0,
            "componentType": 5126,
            "count": 39445,
            "type": "VEC3",
            "max": [
                5.756100177764893,
                24.277700424194337,
                34.55540084838867
            ],
            "min": [
                -5.756100177764893,
                -19.469799041748048,
                -0.3637999892234802
            ]
        },
        {
            "bufferView": 1,
            "byteOffset": 0,
            "componentType": 5126,
            "count": 39445,
            "type": "VEC3",
            "max": [
                0.9999872446060181,
                0.9999942779541016,
                0.999992847442627
            ],
            "min": [
                -0.9999872446060181,
                -0.9999978542327881,
                -0.9999994039535523
            ]
        },
        {
            "bufferView": 2,
            "byteOffset": 0,
            "componentType": 5126,
            "count": 39445,
            "type": "VEC2",
            "max": [
                1.0,
                1.0
            ],
            "min": [
                0.0,
                0.07849997282028198
            ]
        },
        {
            "bufferView": 3,
            "byteOffset": 0,
            "componentType": 5125,
            "count": 226368,
            "type": "SCALAR",
            "max": [
                39444
            ],
            "min": [
                0
            ]
        }
    ],
    "buffers": [
        {
            "byteLength": 2167712,
            "uri": "result.bin"
        }
    ],
    "bufferViews": [
        {
            "buffer": 0,
            "byteOffset": 0,
            "byteLength": 473340,
            "target": 34962
        },
        {
            "buffer": 0,
            "byteOffset": 473340,
            "byteLength": 473340,
            "target": 34962
        },
        {
            "buffer": 0,
            "byteOffset": 946680,
            "byteLength": 315560,
            "target": 34962
        },
        {
            "buffer": 0,
            "byteOffset": 1262240,
            "byteLength": 905472,
            "target": 34963
        }
    ],
    "materials": [
        {
            "name": "DefaultMaterial",
            "pbrMetallicRoughness": {
                "baseColorFactor": [
                    0.6000000238418579,
                    0.6000000238418579,
                    0.6000000238418579,
                    1.0
                ],
                "metallicFactor": 0.0
            }
        },
        {
            "name": "Canaan_Dog",
            "pbrMetallicRoughness": {
                "baseColorFactor": [
                    0.6000000238418579,
                    0.6000000238418579,
                    0.6000000238418579,
                    1.0
                ],
                "metallicFactor": 0.0
            }
        }
    ],
    "meshes": [
        {
            "name": "Canaan_Dog",
            "primitives": [
                {
                    "mode": 4,
                    "material": 1,
                    "indices": 3,
                    "attributes": {
                        "POSITION": 0,
                        "NORMAL": 1,
                        "TEXCOORD_0": 2
                    }
                }
            ]
        }
    ],
    "nodes": [
        {
            "name": "input.obj",
            "children": [
                1
            ]
        },
        {
            "name": "Canaan_Dog",
            "mesh": 0
        }
    ],
    "scenes": [
        {
            "nodes": [
                0
            ]
        }
    ],
    "scene": 0
}